# xmcd
#
# Track frame offsets: 
#        150
#        13166
#        25759
#        40325
#        59241
#        77737
#        91558
#        106445
#        121292
#        131278
#        147553
#        162549
#
# Disc length: 2419 seconds
#
# Revision: 0
# Processed by: cddbd v1.5.2PL0 Copyright (c) Steve Scherf et al.
# Submitted via: ExactAudioCopyFreeDBPlugin 1.0
#
DISCID=a109710c
DTITLE=Roger - 4S Punks
DYEAR=1900
DGENRE=Hip-Hop
TTITLE0=Malen statt radieren
TTITLE1=Karaoke
TTITLE2=Irgendwann feat. Wasi
TTITLE3=4S Punks
TTITLE4=Gib mir 5
TTITLE5=Vielleicht
TTITLE6=Gehts Dir gut
TTITLE7=Schuld sind die Anderen
TTITLE8=Schlimm schlimm
TTITLE9=Serienkiller
TTITLE10=Gespenster
TTITLE11=Warum
EXTD=
EXTT0=
EXTT1=
EXTT2=
EXTT3=
EXTT4=
EXTT5=
EXTT6=
EXTT7=
EXTT8=
EXTT9=
EXTT10=
EXTT11=
PLAYORDER=
